PathFileType	4	(X/Y/Z)	C:/Users/beibeiliu/ov580/test_trc\sequence.27_training_dense_right.trc
DataRate	CameraRate	NumFrames	NumMarkers	Units	OrigDataRate	OrigDataStartFrame	OrigNumFrames
120	120	8	19	mm	120	83	331
Frame#	Time	ThumbCMC			ThumbMCP			ThumbIP			ThumbTip			IndexMCP			IndexPIP			IndexTip			MiddleMCP			MiddlePIP			MiddleTip			RingMCP			RingPIP			RingTip			PinkyMCP			PinkyPIP			PinkyTip			BackHand1			BackHand2			BackHand3	
		X0	Y0	Z0	X1	Y1	Z1	X2	Y2	Z2	X3	Y3	Z3	X4	Y4	Z4	X5	Y5	Z5	X6	Y6	Z6	X7	Y7	Z7	X8	Y8	Z8	X9	Y9	Z9	X10	Y10	Z10	X11	Y11	Z11	X12	Y12	Z12	X13	Y13	Z13	X14	Y14	Z14	X15	Y15	Z15	X16	Y16	Z16	X17	Y17	Z17	X18	Y18	Z18	
82	0.683333	229.937	31.9621	35.0149	208.402	38.4891	11.7403	196.382	34.7429	-9.13565	183.304	29.2058	-25.3841	240.257	10.2831	-27.1943	235.036	14.9978	-46.6586	225.654	18.3271	-65.1294	228.58	-5.98267	-27.9531	215.157	1.79756	-49.0961	184.551	17.2572	-56.6862	223.225	-25.0763	-19.8167	217.06	-23.4676	-43.8396	207.718	-22.6809	-59.9654	213.341	-36.3948	0.532499	210.965	-46.8964	-16.8583	214.296	-53.9631	-32.0452	231.11	-23.7316	24.752	235.07	-21.6803	49.7593	245.836	-1.28131	32.8799	
83	0.691667	230.449	29.6225	37.0812	208.061	40.932	11.182	196.254	38.7559	-6.84415	182.44	32.4956	-24.801	241.454	11.0977	-24.8956	235.571	18.0733	-49.3828	227.414	23.1343	-69.539	226.771	-5.96481	-27.4249	209.128	3.49871	-47.3338	183.193	19.6551	-49.7679	223.923	-21.2073	-16.886	216.189	-23.8484	-39.4574	207.301	-18.0299	-62.7481	214.453	-36.3983	-3.54619	214.02	-43.5365	-20.7325	216.511	-51.2363	-33.3786	231.954	-24.2117	26.4544	233.381	-22.2012	53.8166	248.468	-1.4378	33.713	
84	0.7	231.335	31.0078	35.6834	209.258	38.702	11.864	194.431	40.0552	-9.02544	181.839	33.6317	-21.7362	243.517	16.5377	-28.1469	233.391	16.9955	-49.8598	225.648	21.7173	-70.2939	226.362	-1.75057	-27.281	203.75	7.71527	-48.5687	177.031	21.4116	-44.5223	223.827	-20.2765	-21.7798	212.625	-25.2653	-41.6086	204.806	-15.7451	-61.1369	213.561	-33.9712	1.22811	211.872	-43.9407	-16.2556	215.375	-48.0611	-34.0832	235.225	-18.5859	22.6441	236.522	-20.1444	49.1581	247.562	-0.716251	31.0081	
85	0.708333	233.193	31.0049	32.4012	210.043	42.2435	12.109	195.09	38.8881	-6.8768	179.596	38.673	-21.5514	241.295	13.9198	-27.0597	233.98	16.1011	-50.4551	224.644	19.583	-72.2965	223.968	-0.257585	-32.6361	203.228	5.40598	-47.2746	175.844	25.806	-41.251	217.467	-23.2015	-21.6733	211.146	-20.5116	-41.6133	196.763	-18.0566	-61.4422	211.501	-34.465	-3.41944	209.192	-41.991	-17.167	210.402	-48.2352	-38.1815	233.882	-18.3029	25.0439	235.576	-18.2703	51.5095	248.318	-0.907193	33.7328	
86	0.716667	236.112	31.9892	30.6985	212.333	45.6868	13.2527	195.637	44.6906	-8.54294	179.651	42.5609	-19.7263	240.335	10.8723	-31.2672	232.29	13.0013	-49.055	220.826	14.4537	-74.4235	221.259	-4.49451	-30.712	198.452	6.8994	-47.357	176.668	29.0489	-38.1218	213.7	-23.1378	-23.0162	205.369	-19.0415	-44.2832	193.332	-12.1713	-62.5643	207.763	-32.4847	-2.06966	205.881	-40.0793	-19.5123	205.129	-47.5277	-34.5895	230.701	-19.7648	22.5322	237.257	-21.2023	49.2262	250.115	-2.50912	28.2725	
87	0.725	238.201	30.1907	33.1296	213.914	42.8722	9.72258	196.42	45.7234	-8.0135	178.802	40.8033	-21.3404	238.004	6.61865	-30.738	230.812	10.1259	-49.5368	224.494	15.1396	-71.4274	218.28	-4.15313	-32.4578	199.281	9.20643	-46.529	176.319	27.437	-38.1993	211.741	-22.3643	-21.3883	198.927	-21.4921	-41.8329	188.592	-13.8007	-58.7405	202.123	-33.7195	-0.220965	198.752	-38.869	-17.4282	194.107	-49.3935	-34.436	229.205	-23.0204	25.3116	234.133	-20.0326	47.4731	248.196	-3.62749	31.1148	
88	0.733333	240.06	28.6333	34.4139	217.019	45.7745	11.8016	200.52	44.3187	-4.56599	182.059	39.3498	-17.9905	236.206	4.18919	-28.8913	227.442	6.52682	-52.6585	220.751	13.0185	-73.8897	213.752	-7.81926	-30.3998	196.142	6.01469	-45.0293	177.063	31.7258	-37.7777	209.359	-20.217	-22.0814	196.062	-18.9479	-42.5956	180.732	-13.5104	-59.534	200.693	-30.9537	0.713386	192.401	-40.1494	-16.1852	188.418	-49.2922	-34.0403	226.868	-20.8857	21.3714	234.222	-20.6388	45.8969	248.816	-5.7808	28.8371	
89	0.741667	241.007	24.4445	29.889	220.915	42.8429	12.8576	204.113	46.2761	-6.7224	187.164	42.9551	-15.9425	235.563	3.52497	-28.7312	229.808	8.27295	-49.3057	216.916	8.75588	-72.3495	212.533	-6.92972	-27.7123	194.681	11.3359	-44.8742	179.909	36.9989	-34.0485	204.911	-20.0399	-20.9568	190.959	-17.9102	-38.0119	180.978	-7.50502	-56.2017	192.797	-31.2985	1.93089	188.482	-35.5579	-12.9314	182.804	-45.8593	-26.6327	222.032	-24.3568	26.1302	228.027	-24.5609	47.7532	248.182	-9.37464	26.394	
